{"glyphs":{"0":{"ha":1306,"x_min":0,"x_max":0,"o":"m 656 -21 b 1101 88 775 -21 971 -12 b 1278 479 1219 176 1278 351 b 1101 871 1278 607 1221 783 b 656 986 971 968 797 986 b 200 871 517 986 331 968 b 28 479 81 782 28 608 b 200 88 28 351 83 178 b 656 -21 331 -14 535 -21 z m 653 324 b 513 357 615 324 554 326 b 461 476 478 385 461 438 b 513 597 461 517 478 571 b 654 628 554 626 617 628 b 790 597 690 628 750 628 b 843 476 825 569 843 517 b 790 357 843 438 825 385 b 653 324 750 325 690 324 z "},"1":{"ha":775,"x_min":0,"x_max":0,"o":"m 747 972 l 160 972 l 28 694 l 261 694 l 261 0 l 747 0 z "},"2":{"ha":1114,"x_min":0,"x_max":0,"o":"m 50 521 l 439 521 b 476 643 439 589 454 621 b 585 688 500 667 531 688 b 678 661 621 688 661 676 b 701 582 701 640 707 606 b 508 490 690 536 585 508 b 42 254 336 449 42 344 l 42 0 l 726 0 b 782 0 743 -3 761 -3 l 1063 0 l 1063 254 l 640 254 b 1072 581 640 299 1072 346 b 942 874 1072 717 1049 783 b 574 982 835 964 678 982 b 197 874 474 982 319 964 b 50 521 86 792 56 657 z "},"3":{"ha":1078,"x_min":0,"x_max":0,"o":"m 28 408 b 175 85 33 283 64 161 b 551 -14 296 1 451 -14 b 947 71 656 -14 868 0 b 1050 332 1035 150 1050 208 b 946 489 1050 442 946 486 b 1050 642 946 492 1050 540 b 935 899 1050 739 1050 803 b 551 982 828 988 656 982 b 175 883 451 982 307 972 b 28 560 63 808 33 685 l 417 560 b 454 671 417 622 432 651 b 563 713 478 693 508 713 b 650 689 599 713 633 703 b 679 628 674 671 679 650 b 438 532 679 572 633 532 l 438 436 b 679 340 633 436 679 396 b 650 279 679 318 674 297 b 563 256 633 267 599 256 b 454 297 508 256 478 274 b 417 408 433 318 417 346 z "},"4":{"ha":1200,"x_min":0,"x_max":0,"o":"m 1172 539 l 1065 539 l 1065 972 l 457 972 l 28 539 l 28 233 l 635 233 l 635 0 l 1065 0 l 1065 233 l 1172 233 z m 433 539 l 635 742 l 635 539 z "},"5":{"ha":1078,"x_min":0,"x_max":0,"o":"m 892 611 b 443 647 769 650 564 647 l 450 694 l 1026 694 l 1026 972 l 94 972 l 31 450 l 419 450 b 703 368 615 450 703 450 b 672 290 703 321 690 307 b 571 256 650 269 615 256 b 454 297 517 256 478 274 b 417 408 433 318 417 346 l 28 408 b 175 85 33 283 64 161 b 551 -14 296 1 451 -14 b 956 103 656 -14 858 15 b 1050 374 1018 158 1050 256 b 892 611 1050 489 961 589 z "},"6":{"ha":1099,"x_min":0,"x_max":0,"o":"m 28 294 b 175 51 28 215 76 107 b 558 -17 286 -11 456 -17 b 936 51 661 -17 825 -11 b 1071 294 1035 107 1071 215 b 936 538 1071 374 1035 483 b 560 610 825 599 679 610 b 447 606 525 610 486 608 b 546 688 449 651 483 688 b 647 632 611 688 644 650 l 1050 632 b 936 874 1044 768 1014 817 b 526 982 813 964 626 982 b 158 874 422 982 265 964 b 28 581 51 783 28 717 z m 431 293 b 464 350 431 311 442 338 b 557 367 490 365 533 367 b 647 350 581 367 622 367 b 682 293 668 336 682 311 b 647 235 682 274 671 247 b 557 218 621 221 581 218 b 464 235 532 218 490 219 b 431 293 442 247 431 274 z "},"7":{"ha":1115,"x_min":0,"x_max":0,"o":"m 1101 972 l 42 972 l 42 639 l 400 639 l 42 0 l 556 0 z "},"8":{"ha":1113,"x_min":0,"x_max":0,"o":"m 981 507 b 1056 685 1031 561 1056 631 b 915 914 1056 760 1008 863 b 560 983 810 972 672 983 b 196 914 449 983 301 972 b 57 685 101 863 57 761 b 131 507 57 631 82 561 b 28 294 61 449 28 363 b 175 51 28 215 76 107 b 558 -17 286 -11 456 -17 b 936 51 661 -17 825 -11 b 1085 294 1035 107 1085 215 b 981 507 1085 361 1050 447 z m 471 738 b 557 753 494 750 533 753 b 642 738 581 753 619 753 b 675 683 663 724 675 700 b 642 628 675 665 664 642 b 557 614 617 611 581 614 b 471 628 533 614 494 614 b 438 683 447 642 438 665 b 471 738 438 700 447 725 z m 647 235 b 557 218 621 221 581 218 b 464 235 532 218 490 219 b 431 293 442 247 431 274 b 464 350 431 311 442 338 b 557 367 490 365 533 367 b 647 350 581 367 622 367 b 682 293 668 336 682 311 b 647 235 682 274 671 247 z "},"9":{"ha":1099,"x_min":0,"x_max":0,"o":"m 1071 671 b 924 914 1071 750 1022 858 b 540 982 813 976 643 982 b 163 914 438 982 274 976 b 28 671 64 858 28 750 b 163 428 28 592 64 482 b 539 356 274 367 419 356 b 651 360 574 356 613 357 b 553 278 650 314 615 278 b 451 333 488 278 454 315 l 49 333 b 163 92 54 197 85 149 b 572 -17 286 1 472 -17 b 940 92 676 -17 833 1 b 1071 385 1047 182 1071 249 z m 668 672 b 635 615 668 654 657 628 b 542 599 608 600 565 599 b 451 615 518 599 476 599 b 417 672 431 629 417 654 b 451 731 417 692 428 718 b 542 747 478 744 518 747 b 635 731 567 747 608 746 b 668 672 657 718 668 692 z "},"A":{"ha":1688,"x_min":0,"x_max":0,"o":"m 1160 0 l 1674 0 l 1213 972 l 475 972 l 14 0 l 528 0 l 586 122 l 1101 122 z m 714 393 l 844 667 l 974 393 z "},"B":{"ha":1535,"x_min":0,"x_max":0,"o":"m 1389 496 b 1292 532 1361 511 1326 522 b 1340 554 1308 538 1324 546 b 1436 736 1417 596 1436 675 b 1332 921 1436 803 1414 874 b 1008 972 1243 963 1097 972 l 42 972 l 42 0 l 1065 0 b 1397 64 1219 0 1308 8 b 1493 278 1474 113 1493 206 b 1389 496 1493 356 1471 440 z m 528 713 l 790 713 b 892 707 818 713 864 714 b 925 682 917 701 925 690 b 892 654 925 674 915 658 b 790 649 863 649 821 649 l 528 647 z m 933 300 b 819 293 900 293 854 293 l 528 293 l 528 365 l 819 365 b 933 360 851 365 901 367 b 969 331 961 353 969 340 b 933 300 969 322 960 306 z "},"C":{"ha":1550,"x_min":0,"x_max":0,"o":"m 28 478 b 233 90 28 346 89 179 b 778 -18 390 -6 638 -18 b 1313 90 931 -18 1150 -4 b 1521 438 1439 164 1508 319 l 1058 438 b 983 328 1049 397 1024 351 b 776 286 919 290 835 286 b 567 328 722 286 628 292 b 488 478 510 361 488 426 b 567 631 488 529 508 596 b 776 668 625 665 725 668 b 983 631 824 668 928 658 b 1061 521 1033 606 1054 564 l 1522 521 b 1313 874 1515 657 1469 792 b 778 986 1169 949 919 986 b 233 874 628 986 386 964 b 28 478 81 783 28 614 z "},"D":{"ha":1576,"x_min":0,"x_max":0,"o":"m 42 -1 l 874 -1 b 1372 129 1019 -1 1238 31 b 1535 486 1490 215 1535 360 b 1372 847 1535 621 1500 756 b 874 974 1238 933 1013 974 l 42 974 z m 526 315 l 526 657 l 818 657 b 993 613 867 657 946 643 b 1050 486 1038 581 1050 533 b 993 361 1050 442 1035 390 b 818 315 946 326 869 315 z "},"E":{"ha":1375,"x_min":0,"x_max":0,"o":"m 1347 701 l 1347 972 l 28 972 l 28 0 l 1347 0 l 1347 271 l 586 271 l 586 356 l 1332 356 l 1332 626 l 586 626 l 586 701 z "},"F":{"ha":1375,"x_min":0,"x_max":0,"o":"m 1347 701 l 1347 972 l 28 972 l 28 0 l 586 0 l 586 356 l 1332 356 l 1332 626 l 586 626 l 586 701 z "},"G":{"ha":1536,"x_min":0,"x_max":0,"o":"m 753 342 l 975 342 b 956 328 969 336 963 332 b 749 286 892 290 807 286 b 539 328 694 286 600 292 b 460 478 482 361 460 426 b 539 631 460 529 481 596 b 749 668 597 665 697 668 b 956 631 796 668 901 657 b 1024 554 997 610 1017 585 l 1494 554 b 1285 874 1490 656 1442 792 b 750 986 1142 949 892 986 b 206 874 600 986 358 964 b 0 478 53 783 0 614 b 206 90 0 346 61 179 b 750 -18 363 -6 610 -18 b 1215 56 882 -18 1064 -8 l 1215 0 l 1493 0 l 1493 508 l 753 508 z "},"H":{"ha":1444,"x_min":0,"x_max":0,"o":"m 908 972 l 908 626 l 536 626 l 536 972 l 28 972 l 28 0 l 536 0 l 536 356 l 908 356 l 908 0 l 1417 0 l 1417 972 z "},"I":{"ha":569,"x_min":0,"x_max":0,"o":"m 42 972 l 42 0 l 528 0 l 528 972 z "},"J":{"ha":1389,"x_min":0,"x_max":0,"o":"m 28 546 b 217 111 28 304 133 179 b 721 -24 301 43 464 -24 b 1192 126 1006 -24 1104 65 b 1361 575 1276 188 1361 318 l 1357 972 l 857 972 l 858 574 b 703 357 858 461 828 357 b 514 547 572 357 514 443 z "},"K":{"ha":1435,"x_min":0,"x_max":0,"o":"m 1435 0 l 968 557 l 1389 972 l 758 972 l 572 785 l 572 972 l 28 972 l 28 0 l 572 0 l 572 167 l 663 257 l 858 0 z "},"L":{"ha":1306,"x_min":0,"x_max":0,"o":"m 579 361 l 579 972 l 28 972 l 28 0 l 1278 0 l 1278 361 z "},"M":{"ha":1639,"x_min":0,"x_max":0,"o":"m 1611 972 l 1131 972 l 1131 969 l 821 451 l 508 972 l 28 972 l 28 0 l 508 0 l 508 363 l 726 0 l 914 0 l 1131 360 l 1131 0 l 1611 0 z "},"N":{"ha":1528,"x_min":0,"x_max":0,"o":"m 1000 972 l 1000 494 l 529 972 l 42 972 l 42 0 l 528 0 l 528 479 l 1000 0 l 1486 0 l 1486 972 z "},"O":{"ha":1551,"x_min":0,"x_max":0,"o":"m 765 -21 b 1300 88 910 -21 1143 -12 b 1510 479 1440 176 1510 351 b 1300 871 1510 607 1442 783 b 767 986 1143 968 935 986 b 221 871 600 986 378 968 b 14 479 78 782 14 608 b 221 88 14 351 81 178 b 765 -21 378 -14 621 -21 z m 763 285 b 553 326 707 285 614 288 b 474 476 499 361 474 428 b 553 628 474 526 499 594 b 764 667 614 665 708 667 b 969 628 819 667 910 667 b 1050 476 1022 593 1050 526 b 969 326 1050 428 1022 361 b 763 285 908 286 819 285 z "},"P":{"ha":1535,"x_min":0,"x_max":0,"o":"m 1389 894 b 1065 972 1300 958 1154 972 l 42 972 l 42 0 l 528 0 l 528 250 l 1065 250 b 1397 333 1219 250 1308 261 b 1493 611 1474 396 1493 518 b 1389 894 1493 713 1471 824 z m 933 568 b 819 560 900 560 854 560 l 528 560 l 528 653 l 819 653 b 933 646 851 653 901 656 b 969 608 961 638 969 621 b 933 568 969 596 960 575 z "},"Q":{"ha":1529,"x_min":0,"x_max":0,"o":"m 1515 479 b 1304 871 1515 607 1447 783 b 769 986 1144 969 911 986 b 222 871 625 986 379 968 b 14 479 78 782 14 608 b 222 88 14 351 81 178 b 768 -21 379 -14 624 -21 b 1013 -7 836 -21 922 -19 l 1107 -131 l 1343 47 l 1310 92 b 1515 479 1447 181 1515 353 z m 985 517 l 747 339 l 789 285 l 765 285 b 554 326 710 285 617 288 b 475 476 500 361 475 428 b 554 628 475 526 500 594 b 767 667 617 665 711 667 b 974 628 822 667 913 667 b 1054 476 1026 593 1054 526 b 1049 433 1054 463 1053 449 z "},"R":{"ha":1472,"x_min":0,"x_max":0,"o":"m 1351 333 b 1444 611 1426 396 1444 518 b 1343 894 1444 713 1424 824 b 1028 972 1257 958 1114 972 l 28 972 l 28 0 l 503 0 l 503 250 l 810 250 l 926 0 l 1428 0 l 1294 288 b 1351 333 1311 299 1328 314 z m 503 653 l 788 653 b 899 646 819 653 868 656 b 935 608 926 638 935 621 b 899 568 935 596 925 575 b 788 560 867 560 821 560 l 503 560 z "},"S":{"ha":1550,"x_min":0,"x_max":0,"o":"m 758 -14 b 1299 40 910 -14 1160 -18 b 1522 326 1481 117 1522 201 b 1190 611 1522 483 1432 596 b 614 661 947 626 632 625 b 763 710 597 694 685 710 b 908 646 829 710 899 679 l 1467 646 b 1257 915 1467 742 1414 833 b 764 986 1114 990 915 986 b 269 932 613 986 408 990 b 28 646 88 856 28 771 b 363 358 28 492 124 375 b 908 319 551 346 888 353 b 768 263 926 290 851 263 b 614 326 693 263 624 293 l 42 326 b 251 57 42 231 94 139 b 758 -14 394 -18 607 -14 z "},"T":{"ha":1417,"x_min":0,"x_max":0,"o":"m 1403 972 l 14 972 l 14 597 l 436 597 l 436 0 l 992 0 l 992 597 l 1403 597 z "},"U":{"ha":1564,"x_min":0,"x_max":0,"o":"m 1532 972 l 1029 972 l 1031 574 b 776 357 1031 471 975 357 b 529 575 578 357 529 474 l 526 972 l 28 972 l 28 574 b 218 111 28 247 133 179 b 796 -24 303 43 493 -24 b 1365 126 1081 -24 1279 65 b 1536 575 1451 188 1536 318 z "},"V":{"ha":1611,"x_min":0,"x_max":0,"o":"m 1107 972 l 806 306 l 503 972 l 14 972 l 453 0 l 1157 0 l 1597 972 z "},"W":{"ha":1889,"x_min":0,"x_max":0,"o":"m 1418 972 l 1250 501 l 1110 972 l 781 972 l 640 500 l 471 972 l 14 972 l 363 0 l 821 0 l 946 418 l 1069 0 l 1526 0 l 1875 972 z "},"X":{"ha":1418,"x_min":0,"x_max":0,"o":"m 1404 972 l 824 972 l 710 835 l 594 972 l 14 972 l 419 486 l 14 0 l 594 0 l 710 138 l 824 0 l 1404 0 l 1000 486 z "},"Y":{"ha":1556,"x_min":0,"x_max":0,"o":"m 924 972 l 778 772 l 631 972 l 14 972 l 500 394 l 500 0 l 1056 0 l 1056 394 l 1542 972 z "},"Z":{"ha":1361,"x_min":0,"x_max":0,"o":"m 1361 972 l 32 972 l 32 597 l 490 597 l 0 0 l 1329 0 l 1329 375 l 874 375 z "},"a":{"ha":833,"x_min":0,"x_max":0,"o":""},"b":{"ha":833,"x_min":0,"x_max":0,"o":""},"c":{"ha":833,"x_min":0,"x_max":0,"o":""},"d":{"ha":833,"x_min":0,"x_max":0,"o":""},"e":{"ha":833,"x_min":0,"x_max":0,"o":""},"f":{"ha":1806,"x_min":0,"x_max":0,"o":""},"g":{"ha":833,"x_min":0,"x_max":0,"o":""},"h":{"ha":833,"x_min":0,"x_max":0,"o":""},"i":{"ha":833,"x_min":0,"x_max":0,"o":""},"j":{"ha":833,"x_min":0,"x_max":0,"o":""},"k":{"ha":833,"x_min":0,"x_max":0,"o":""},"l":{"ha":833,"x_min":0,"x_max":0,"o":""},"m":{"ha":833,"x_min":0,"x_max":0,"o":""},"n":{"ha":833,"x_min":0,"x_max":0,"o":""},"o":{"ha":833,"x_min":0,"x_max":0,"o":""},"p":{"ha":833,"x_min":0,"x_max":0,"o":""},"q":{"ha":833,"x_min":0,"x_max":0,"o":""},"r":{"ha":833,"x_min":0,"x_max":0,"o":""},"s":{"ha":833,"x_min":0,"x_max":0,"o":""},"t":{"ha":833,"x_min":0,"x_max":0,"o":""},"u":{"ha":833,"x_min":0,"x_max":0,"o":""},"v":{"ha":833,"x_min":0,"x_max":0,"o":""},"w":{"ha":833,"x_min":0,"x_max":0,"o":""},"x":{"ha":833,"x_min":0,"x_max":0,"o":""},"y":{"ha":833,"x_min":0,"x_max":0,"o":""},"z":{"ha":833,"x_min":0,"x_max":0,"o":""},".":{"ha":361,"x_min":0,"x_max":0,"o":"m 181 0 b 354 174 276 0 354 78 b 181 347 354 269 276 347 b 7 174 83 347 7 269 b 181 0 7 78 83 0 z "},",":{"ha":472,"x_min":0,"x_max":0,"o":"m 104 158 l -75 -182 l 265 -182 l 444 158 z "},":":{"ha":403,"x_min":0,"x_max":0,"o":"m 201 500 b 375 674 297 500 375 578 b 201 847 375 769 297 847 b 28 674 104 847 28 769 b 201 500 28 578 104 500 z m 201 97 b 375 271 297 97 375 175 b 201 444 375 367 297 444 b 28 271 104 444 28 367 b 201 97 28 175 104 97 z "},";":{"ha":497,"x_min":0,"x_max":0,"o":"m 310 269 b 483 443 406 269 483 347 b 310 617 483 540 406 617 b 136 443 213 617 136 539 b 310 269 136 347 213 269 z m 132 200 l -47 -140 l 293 -140 l 472 200 z "},"!":{"ha":413,"x_min":0,"x_max":0,"o":"m 28 972 l 42 414 l 361 414 l 375 972 z m 211 0 b 385 174 307 0 385 78 b 211 347 385 269 307 347 b 38 174 114 347 38 269 b 211 0 38 78 114 0 z "},"?":{"ha":772,"x_min":0,"x_max":0,"o":"m 14 581 l 275 581 b 304 694 275 640 288 674 b 399 733 322 717 357 733 b 471 710 426 733 458 724 b 494 635 489 690 499 661 b 371 558 488 593 431 574 b 206 350 235 524 206 431 l 515 350 b 758 646 515 446 758 426 b 656 894 758 767 717 836 b 393 992 574 974 475 992 b 124 894 315 992 219 975 b 14 581 38 822 19 701 z m 360 3 b 515 158 446 3 515 72 b 360 313 515 243 446 313 b 206 158 274 313 206 243 b 360 3 206 72 274 3 z "},"/":{"ha":853,"x_min":0,"x_max":0,"o":"m 513 972 l 0 0 l 340 0 l 853 972 z "},"-":{"ha":722,"x_min":0,"x_max":0,"o":"m 83 625 l 83 347 l 639 347 l 639 625 z "},"\"":{"ha":738,"x_min":0,"x_max":0,"o":"m 14 972 l 36 632 l 335 632 l 354 972 z m 383 972 l 406 632 l 704 632 l 724 972 z "},"'":{"ha":368,"x_min":0,"x_max":0,"o":"m 14 972 l 36 632 l 335 632 l 354 972 z "}," ":{"ha":833,"x_min":0,"x_max":0,"o":""}}}
